<svg aria-hidden="true" style="position: absolute; width: 0; height: 0; overflow: hidden;" version="1.1" xmlns="http://www.w3.org/2000/svg" xmlns:xlink="http://www.w3.org/1999/xlink">
<defs>
<symbol id="icon-map" viewBox="0 0 22 32">
<path d="M-16.97-0.97h55.619v33.593h-55.619v-33.593z"></path>
</symbol>
<symbol id="icon-smile-1" viewBox="0 0 32 32">
<path fill="#fad34f" style="fill: var(--color1, #fad34f)" d="M27.545 25.252c5.271-3.717 6.615-10.884 3.002-16.007s-10.815-6.263-16.086-2.546-6.615 10.884-3.002 16.007c3.613 5.123 10.815 6.263 16.086 2.546z"></path>
<path fill="#fff" style="fill: var(--color2, #fff)" d="M20.011 10.787c0.244 0.346-0.14 0.378-0.496 0.63s-0.549 0.627-0.794 0.28c-0.245-0.347-0.153-0.831 0.203-1.082s0.843-0.175 1.087 0.172z"></path>
<path fill="#fff" style="fill: var(--color2, #fff)" d="M22.477 9.048c0.244 0.346-0.14 0.378-0.496 0.63s-0.549 0.627-0.794 0.28c-0.245-0.347-0.153-0.831 0.203-1.082s0.843-0.175 1.087 0.172z"></path>
<path fill="#fff" style="fill: var(--color2, #fff)" d="M23 11.090c0.477 0.677 0.3 1.623-0.396 2.114s-1.647 0.34-2.124-0.336c-0.477-0.677 0.598-0.351 1.294-0.842s0.75-1.612 1.227-0.936z"></path>
</symbol>
<symbol id="icon-smile-2" viewBox="0 0 32 32">
<path fill="#46ebb0" style="fill: var(--color3, #46ebb0)" d="M28.854 19.057c0 7.148-5.795 12.943-12.943 12.943s-12.943-5.795-12.943-12.943v-19.057h25.885v19.057z"></path>
<path fill="#fff" style="fill: var(--color2, #fff)" d="M15.509 22.779c0-0.927 0.752 0 1.679 0s1.679-0.927 1.679 0c0 0.927-0.752 1.679-1.679 1.679s-1.679-0.752-1.679-1.679z"></path>
<path fill="#fff" style="fill: var(--color2, #fff)" d="M10.222 22.779c0-0.927 0.752 0 1.679 0s1.679-0.927 1.679 0c0 0.927-0.752 1.679-1.679 1.679s-1.679-0.752-1.679-1.679z"></path>
<path fill="#fff" style="fill: var(--color2, #fff)" d="M11.905 19.222c0-1.705 1.382-3.086 3.086-3.086s3.086 1.382 3.086 3.086c0 1.704-1.382-0.119-3.086-0.119s-3.086 1.823-3.086 0.119z"></path>
</symbol>
<symbol id="icon-smile-3" viewBox="0 0 32 32">
<path fill="#f472b7" style="fill: var(--color4, #f472b7)" d="M23.504 27.484c-4.689 4.276-11.859 4.048-16.015-0.509s-3.724-11.718 0.965-15.994c4.689-4.276 11.859-4.048 16.015 0.509s3.724 11.718-0.965 15.994z"></path>
<path fill="#fff" style="fill: var(--color2, #fff)" d="M11.205 17.18c0.281 0.308 0.393-0.054 0.71-0.343s0.719-0.395 0.438-0.703-0.766-0.324-1.083-0.034c-0.317 0.289-0.347 0.773-0.065 1.081z"></path>
<path fill="#fff" style="fill: var(--color2, #fff)" d="M9.011 19.18c0.281 0.308 0.393-0.054 0.71-0.343s0.719-0.395 0.438-0.703c-0.281-0.309-0.766-0.323-1.083-0.034s-0.347 0.773-0.065 1.081z"></path>
<path fill="#fff" style="fill: var(--color2, #fff)" d="M10.863 20.114c0.549 0.602 1.496 0.632 2.115 0.067s0.676-1.51 0.127-2.112c-0.549-0.602-0.464 0.5-1.083 1.064s-1.708 0.379-1.159 0.981z"></path>
</symbol>
<symbol id="icon-smile-4" viewBox="0 0 32 32">
<path fill="#fad34f" style="fill: var(--color1, #fad34f)" d="M22.467 25.176c5.228-3.687 6.561-10.795 2.977-15.876s-10.726-6.212-15.954-2.525-6.561 10.795-2.977 15.876c3.583 5.081 10.726 6.212 15.954 2.525z"></path>
<path fill="#fff" style="fill: var(--color2, #fff)" d="M14.995 10.83c0.242 0.343-0.139 0.375-0.492 0.624s-0.545 0.622-0.788 0.278c-0.243-0.344-0.152-0.824 0.201-1.073s0.836-0.173 1.079 0.171z"></path>
<path fill="#fff" style="fill: var(--color2, #fff)" d="M17.44 9.105c0.242 0.343-0.139 0.375-0.492 0.624s-0.545 0.622-0.788 0.278c-0.243-0.344-0.152-0.824 0.201-1.073s0.836-0.173 1.079 0.171z"></path>
<path fill="#fff" style="fill: var(--color2, #fff)" d="M17.959 11.13c0.473 0.671 0.297 1.61-0.393 2.097s-1.634 0.338-2.107-0.333c-0.473-0.671 0.593-0.348 1.283-0.835s0.744-1.599 1.217-0.928z"></path>
</symbol>
<symbol id="icon-smile-5" viewBox="0 0 32 32">
<path fill="#fad34f" style="fill: var(--color1, #fad34f)" d="M16.052 31.983c8.837 0 16-7.163 16-16s-7.163-16-16-16c-8.837 0-16 7.163-16 16s7.163 16 16 16z"></path>
<path fill="#fff" style="fill: var(--color2, #fff)" d="M20.363 20.954c0 1.146-0.929 0-2.076 0-1.146 0-2.076 1.146-2.076 0s0.929-2.076 2.076-2.076c1.147 0 2.076 0.929 2.076 2.076z"></path>
<path fill="#fff" style="fill: var(--color2, #fff)" d="M26.898 20.954c0 1.146-0.929 0-2.076 0-1.146 0-2.076 1.146-2.076 0s0.929-2.076 2.076-2.076c1.147 0 2.076 0.929 2.076 2.076z"></path>
<path fill="#fff" style="fill: var(--color2, #fff)" d="M24.818 25.352c0 2.108-1.709 3.815-3.815 3.815s-3.815-1.709-3.815-3.815c0-2.107 1.709 0.147 3.815 0.147s3.815-2.254 3.815-0.147z"></path>
</symbol>
<symbol id="icon-smile-6" viewBox="0 0 32 32">
<path fill="#f472b7" style="fill: var(--color4, #f472b7)" d="M23.504 24.262c-4.689 4.276-11.859 4.048-16.015-0.509s-3.724-11.718 0.965-15.994 11.859-4.048 16.015 0.509c4.156 4.557 3.724 11.718-0.965 15.994z"></path>
<path fill="#fff" style="fill: var(--color2, #fff)" d="M11.205 13.958c0.281 0.308 0.393-0.054 0.71-0.343s0.719-0.395 0.438-0.703-0.766-0.324-1.083-0.034c-0.317 0.289-0.347 0.773-0.065 1.081z"></path>
<path fill="#fff" style="fill: var(--color2, #fff)" d="M9.011 15.958c0.281 0.308 0.393-0.054 0.71-0.343s0.719-0.395 0.438-0.703c-0.281-0.309-0.766-0.323-1.083-0.034s-0.347 0.773-0.065 1.081z"></path>
<path fill="#fff" style="fill: var(--color2, #fff)" d="M10.863 16.893c0.549 0.602 1.496 0.632 2.115 0.067s0.676-1.51 0.127-2.112c-0.549-0.602-0.464 0.5-1.083 1.064s-1.708 0.379-1.159 0.981z"></path>
</symbol>
<symbol id="ld" viewBox="0 0 26 32">
<path fill="#696969" style="fill: var(--color1, #696969)" d="M14.059 0.574c-6.533 0-12.99 4.056-12.99 10.621 0 4.175 2.522 6.547 4.050 6.547 0.63 0 0.993-1.637 0.993-2.099 0-0.552-1.509-1.726-1.509-4.021 0-4.768 3.897-8.148 8.94-8.148 4.336 0 7.545 2.295 7.545 6.512 0 3.149-1.356 9.056-5.75 9.056-1.585 0-2.942-1.067-2.942-2.597 0-2.242 1.681-4.412 1.681-6.725 0-3.926-5.979-3.214-5.979 1.53 0 0.996 0.134 2.099 0.611 3.007-0.879 3.523-2.674 8.771-2.674 12.4 0 1.121 0.172 2.224 0.287 3.345 0.216 0.225 0.108 0.202 0.439 0.089 3.209-4.092 3.095-4.893 4.546-10.248 0.783 1.388 2.808 2.135 4.413 2.135 6.762 0 9.8-6.138 9.8-11.671 0-5.889-5.463-9.732-11.461-9.732z"></path>
</symbol>
<symbol id="fb" viewBox="0 0 17 32">
<path fill="#696969" style="fill: var(--color1, #696969)" d="M5.387 30.28v-13.543h-4.575v-5.382h4.575v-4.24c0-4.607 2.839-7.115 6.984-7.115 1.986 0 3.692 0.148 4.187 0.213v4.814h-2.875c-2.255 0-2.69 1.065-2.69 2.62v3.708h5.087l-0.698 5.382h-4.39v13.543z"></path>
</symbol>
<symbol id="tw" viewBox="0 0 39 32">
<path fill="#696969" style="fill: var(--color1, #696969)" d="M34.377 7.987c0.023 0.322 0.023 0.643 0.023 0.965 0 9.813-7.582 21.119-21.441 21.119-4.27 0-8.236-1.218-11.572-3.332 0.607 0.069 1.19 0.092 1.82 0.092 3.523 0 6.766-1.172 9.355-3.171-3.313-0.069-6.089-2.206-7.046-5.148 0.467 0.069 0.933 0.115 1.423 0.115 0.677 0 1.353-0.092 1.983-0.253-3.453-0.689-6.043-3.677-6.043-7.285v-0.092c1.003 0.552 2.17 0.896 3.406 0.942-2.030-1.333-3.36-3.608-3.36-6.182 0-1.379 0.373-2.643 1.026-3.746 3.71 4.504 9.286 7.446 15.538 7.767-0.117-0.552-0.187-1.126-0.187-1.7 0-4.091 3.36-7.423 7.536-7.423 2.17 0 4.129 0.896 5.506 2.344 1.703-0.322 3.336-0.942 4.783-1.792-0.56 1.724-1.75 3.171-3.313 4.090 1.517-0.161 2.986-0.574 4.339-1.149-1.026 1.471-2.309 2.78-3.779 3.838z"></path>
</symbol>
<symbol id="in" viewBox="0 0 30 32">
<path fill="#696969" style="fill: var(--color1, #696969)" d="M6.584 30.255h-6.098v-19.761h6.098v19.761zM3.532 7.798c-1.95 0-3.532-1.625-3.532-3.588s1.582-3.554 3.532-3.554c1.95 0 3.532 1.592 3.532 3.554s-1.582 3.588-3.532 3.588zM29.408 30.255h-6.085v-9.62c0-2.293-0.046-5.233-3.171-5.233-3.171 0-3.656 2.491-3.656 5.067v9.785h-6.092v-19.761h5.849v2.696h0.085c0.814-1.553 2.803-3.191 5.77-3.191 6.171 0 7.306 4.090 7.306 9.402v10.855h-0.006z"></path>
</symbol>
</defs>
</svg>
