<svg aria-hidden="true" style="position: absolute; width: 0; height: 0; overflow: hidden;" version="1.1" xmlns="http://www.w3.org/2000/svg" xmlns:xlink="http://www.w3.org/1999/xlink">
<defs>
<symbol id="icon-map" viewBox="0 0 22 32">
<path d="M-16.97-0.97h55.619v33.593h-55.619v-33.593z"></path>
</symbol>
<symbol id="icon-smile-1" viewBox="0 0 32 32">
<path fill="#fad34f" style="fill: var(--color1, #fad34f)" d="M27.545 25.252c5.271-3.717 6.615-10.884 3.002-16.007s-10.815-6.263-16.086-2.546-6.615 10.884-3.002 16.007c3.613 5.123 10.815 6.263 16.086 2.546z"></path>
<path fill="#fff" style="fill: var(--color2, #fff)" d="M20.011 10.787c0.244 0.346-0.14 0.378-0.496 0.63s-0.549 0.627-0.794 0.28c-0.245-0.347-0.153-0.831 0.203-1.082s0.843-0.175 1.087 0.172z"></path>
<path fill="#fff" style="fill: var(--color2, #fff)" d="M22.477 9.048c0.244 0.346-0.14 0.378-0.496 0.63s-0.549 0.627-0.794 0.28c-0.245-0.347-0.153-0.831 0.203-1.082s0.843-0.175 1.087 0.172z"></path>
<path fill="#fff" style="fill: var(--color2, #fff)" d="M23 11.090c0.477 0.677 0.3 1.623-0.396 2.114s-1.647 0.34-2.124-0.336c-0.477-0.677 0.598-0.351 1.294-0.842s0.75-1.612 1.227-0.936z"></path>
</symbol>
<symbol id="icon-smile-2" viewBox="0 0 32 32">
<path fill="#46ebb0" style="fill: var(--color3, #46ebb0)" d="M28.854 19.057c0 7.148-5.795 12.943-12.943 12.943s-12.943-5.795-12.943-12.943v-19.057h25.885v19.057z"></path>
<path fill="#fff" style="fill: var(--color2, #fff)" d="M15.509 22.779c0-0.927 0.752 0 1.679 0s1.679-0.927 1.679 0c0 0.927-0.752 1.679-1.679 1.679s-1.679-0.752-1.679-1.679z"></path>
<path fill="#fff" style="fill: var(--color2, #fff)" d="M10.222 22.779c0-0.927 0.752 0 1.679 0s1.679-0.927 1.679 0c0 0.927-0.752 1.679-1.679 1.679s-1.679-0.752-1.679-1.679z"></path>
<path fill="#fff" style="fill: var(--color2, #fff)" d="M11.905 19.222c0-1.705 1.382-3.086 3.086-3.086s3.086 1.382 3.086 3.086c0 1.704-1.382-0.119-3.086-0.119s-3.086 1.823-3.086 0.119z"></path>
</symbol>
<symbol id="icon-smile-3" viewBox="0 0 32 32">
<path fill="#f472b7" style="fill: var(--color4, #f472b7)" d="M23.504 27.484c-4.689 4.276-11.859 4.048-16.015-0.509s-3.724-11.718 0.965-15.994c4.689-4.276 11.859-4.048 16.015 0.509s3.724 11.718-0.965 15.994z"></path>
<path fill="#fff" style="fill: var(--color2, #fff)" d="M11.205 17.18c0.281 0.308 0.393-0.054 0.71-0.343s0.719-0.395 0.438-0.703-0.766-0.324-1.083-0.034c-0.317 0.289-0.347 0.773-0.065 1.081z"></path>
<path fill="#fff" style="fill: var(--color2, #fff)" d="M9.011 19.18c0.281 0.308 0.393-0.054 0.71-0.343s0.719-0.395 0.438-0.703c-0.281-0.309-0.766-0.323-1.083-0.034s-0.347 0.773-0.065 1.081z"></path>
<path fill="#fff" style="fill: var(--color2, #fff)" d="M10.863 20.114c0.549 0.602 1.496 0.632 2.115 0.067s0.676-1.51 0.127-2.112c-0.549-0.602-0.464 0.5-1.083 1.064s-1.708 0.379-1.159 0.981z"></path>
</symbol>
<symbol id="icon-smile-4" viewBox="0 0 32 32">
<path fill="#fad34f" style="fill: var(--color1, #fad34f)" d="M22.467 25.176c5.228-3.687 6.561-10.795 2.977-15.876s-10.726-6.212-15.954-2.525-6.561 10.795-2.977 15.876c3.583 5.081 10.726 6.212 15.954 2.525z"></path>
<path fill="#fff" style="fill: var(--color2, #fff)" d="M14.995 10.83c0.242 0.343-0.139 0.375-0.492 0.624s-0.545 0.622-0.788 0.278c-0.243-0.344-0.152-0.824 0.201-1.073s0.836-0.173 1.079 0.171z"></path>
<path fill="#fff" style="fill: var(--color2, #fff)" d="M17.44 9.105c0.242 0.343-0.139 0.375-0.492 0.624s-0.545 0.622-0.788 0.278c-0.243-0.344-0.152-0.824 0.201-1.073s0.836-0.173 1.079 0.171z"></path>
<path fill="#fff" style="fill: var(--color2, #fff)" d="M17.959 11.13c0.473 0.671 0.297 1.61-0.393 2.097s-1.634 0.338-2.107-0.333c-0.473-0.671 0.593-0.348 1.283-0.835s0.744-1.599 1.217-0.928z"></path>
</symbol>
<symbol id="icon-smile-5" viewBox="0 0 32 32">
<path fill="#fad34f" style="fill: var(--color1, #fad34f)" d="M16.052 31.983c8.837 0 16-7.163 16-16s-7.163-16-16-16c-8.837 0-16 7.163-16 16s7.163 16 16 16z"></path>
<path fill="#fff" style="fill: var(--color2, #fff)" d="M20.363 20.954c0 1.146-0.929 0-2.076 0-1.146 0-2.076 1.146-2.076 0s0.929-2.076 2.076-2.076c1.147 0 2.076 0.929 2.076 2.076z"></path>
<path fill="#fff" style="fill: var(--color2, #fff)" d="M26.898 20.954c0 1.146-0.929 0-2.076 0-1.146 0-2.076 1.146-2.076 0s0.929-2.076 2.076-2.076c1.147 0 2.076 0.929 2.076 2.076z"></path>
<path fill="#fff" style="fill: var(--color2, #fff)" d="M24.818 25.352c0 2.108-1.709 3.815-3.815 3.815s-3.815-1.709-3.815-3.815c0-2.107 1.709 0.147 3.815 0.147s3.815-2.254 3.815-0.147z"></path>
</symbol>
<symbol id="icon-smile-6" viewBox="0 0 32 32">
<path fill="#f472b7" style="fill: var(--color4, #f472b7)" d="M23.504 24.262c-4.689 4.276-11.859 4.048-16.015-0.509s-3.724-11.718 0.965-15.994 11.859-4.048 16.015 0.509c4.156 4.557 3.724 11.718-0.965 15.994z"></path>
<path fill="#fff" style="fill: var(--color2, #fff)" d="M11.205 13.958c0.281 0.308 0.393-0.054 0.71-0.343s0.719-0.395 0.438-0.703-0.766-0.324-1.083-0.034c-0.317 0.289-0.347 0.773-0.065 1.081z"></path>
<path fill="#fff" style="fill: var(--color2, #fff)" d="M9.011 15.958c0.281 0.308 0.393-0.054 0.71-0.343s0.719-0.395 0.438-0.703c-0.281-0.309-0.766-0.323-1.083-0.034s-0.347 0.773-0.065 1.081z"></path>
<path fill="#fff" style="fill: var(--color2, #fff)" d="M10.863 16.893c0.549 0.602 1.496 0.632 2.115 0.067s0.676-1.51 0.127-2.112c-0.549-0.602-0.464 0.5-1.083 1.064s-1.708 0.379-1.159 0.981z"></path>
</symbol>
</defs>
</svg>
